<?xml version="1.0" encoding="utf-8"?>
<!-- Generator: Adobe Illustrator 23.0.6, SVG Export Plug-In . SVG Version: 6.00 Build 0)  -->
<svg version="1.1" id="Camada_1" xmlns="http://www.w3.org/2000/svg" xmlns:xlink="http://www.w3.org/1999/xlink" x="0px" y="0px"
	 viewBox="0 0 237 363" style="enable-background:new 0 0 237 363;" xml:space="preserve">
<style type="text/css">
	.st0{fill:#FFFFFF;}
</style>
<g>
	<path class="st0" d="M147.81,309.99l-2.98,0.61v-72.95H89.6v72.95l-2.98-0.61c-13.5-2.77-27.01-7.74-40.19-14.8L28.6,333.6
		c12.02,6.95,25.55,12.39,40.27,16.19c15.53,4.01,31.8,6.04,48.35,6.04c16.55,0,32.82-2.03,48.35-6.04
		c14.72-3.8,28.26-9.24,40.27-16.19L188,295.2C174.82,302.25,161.31,307.23,147.81,309.99z"/>
	<path class="st0" d="M9.22,234.8c2.1,26.45,46.61,41.1,54.45,43.77v-69.95h107.08v69.95c7.84-2.67,52.35-17.32,54.45-43.77
		l0.11-1.37v-25.98v-44.69v-26.68l-0.11-0.66c-2.1-26.45-46.61-41.1-54.45-43.77v69.95H63.68V91.64
		c-7.84,2.67-52.35,17.32-54.45,43.77l-0.11,1.37v25.98v44.69v26.68L9.22,234.8z"/>
	<path class="st0" d="M86.62,60.22l2.98-0.61v72.95h55.23V59.61l2.98,0.61c13.5,2.77,27.01,7.74,40.19,14.8l17.83-38.41
		c-12.02-6.95-25.55-12.39-40.27-16.19c-15.53-4.01-31.8-6.04-48.35-6.04c-16.55,0-32.82,2.03-48.35,6.04
		c-14.72,3.8-28.26,9.24-40.27,16.19l17.83,38.41C59.61,67.96,73.12,62.99,86.62,60.22z"/>
</g>
</svg>
