<svg xmlns="http://www.w3.org/2000/svg" width="137.371" height="19.969" viewBox="0 0 137.371 19.969"><defs><style>.a{fill:#fff;}</style></defs><g transform="translate(18.173 4.585)"><path class="a" d="M366.485,178.648v10.44h-2.416v-4.281h-4.743v4.281H356.91v-10.44h2.416v4.117h4.743v-4.117Z" transform="translate(-356.91 -178.469)"/><path class="a" d="M506.726,177.083a3.982,3.982,0,0,1,1.67,1.671,5.548,5.548,0,0,1,.6,2.67v5.712h-2.416V184.63H501.8v2.506h-2.386v-5.712a5.544,5.544,0,0,1,.6-2.67,3.981,3.981,0,0,1,1.67-1.671,5.889,5.889,0,0,1,5.041,0Zm-.149,5.608V181.2a2.717,2.717,0,0,0-.641-1.961,2.636,2.636,0,0,0-3.5,0,2.737,2.737,0,0,0-.634,1.961v1.491Z" transform="translate(-487.456 -176.516)"/><path class="a" d="M636.873,186.621a5.176,5.176,0,0,1-2.028-1.924,5.609,5.609,0,0,1,0-5.563,5.175,5.175,0,0,1,2.028-1.924,6.472,6.472,0,0,1,5.354-.216,4.917,4.917,0,0,1,1.842,1.372l-1.551,1.432a3.336,3.336,0,0,0-2.625-1.223,3.486,3.486,0,0,0-1.73.425,3.022,3.022,0,0,0-1.186,1.186,3.734,3.734,0,0,0,0,3.46,3.023,3.023,0,0,0,1.186,1.186,3.485,3.485,0,0,0,1.73.425,3.319,3.319,0,0,0,2.625-1.238l1.551,1.432a4.834,4.834,0,0,1-1.849,1.387,6.139,6.139,0,0,1-2.461.477A6,6,0,0,1,636.873,186.621Z" transform="translate(-610.839 -176.516)"/><path class="a" d="M775.972,184.987l-1.4,1.462v2.64h-2.4v-10.44h2.4v4.877l4.624-4.877h2.685l-4.325,4.653,4.579,5.787h-2.819Z" transform="translate(-737.314 -178.469)"/><path class="a" d="M908.125,177.083a3.982,3.982,0,0,1,1.67,1.671,5.547,5.547,0,0,1,.6,2.67v5.712h-2.416V184.63H903.2v2.506h-2.386v-5.712a5.545,5.545,0,0,1,.6-2.67,3.981,3.981,0,0,1,1.671-1.671,5.889,5.889,0,0,1,5.041,0Zm-.149,5.608V181.2a2.718,2.718,0,0,0-.641-1.961,2.636,2.636,0,0,0-3.5,0,2.737,2.737,0,0,0-.634,1.961v1.491Z" transform="translate(-855.163 -176.516)"/><path class="a" d="M1033.853,179.618a8.016,8.016,0,0,0-2.879-1v8.516h-2.416v-8.516a8.152,8.152,0,0,0-2.893,1l-.82-1.8a8.93,8.93,0,0,1,2.327-.969,10.149,10.149,0,0,1,2.58-.328,10.3,10.3,0,0,1,2.6.328,8.677,8.677,0,0,1,2.319.969Z" transform="translate(-968.78 -176.516)"/><path class="a" d="M1163.271,178.648v10.44h-2.342v-1.268a4.162,4.162,0,0,1-6.048.276,4.867,4.867,0,0,1-1.036-3.333v-6.115h2.416v6.041a2.682,2.682,0,0,0,.589,1.887,2.082,2.082,0,0,0,1.6.634,2.316,2.316,0,0,0,1.745-.679,2.777,2.777,0,0,0,.656-2.006v-5.876Z" transform="translate(-1086.953 -178.469)"/><path class="a" d="M1304.082,177.687a4.845,4.845,0,0,1,1.044,3.333v6.115h-2.416v-6.04a2.683,2.683,0,0,0-.589-1.887,2.12,2.12,0,0,0-1.633-.634,2.36,2.36,0,0,0-1.767.679,2.759,2.759,0,0,0-.664,2.006v5.876h-2.416v-10.44h2.342v1.268a3.421,3.421,0,0,1,1.343-1.081,4.433,4.433,0,0,1,1.849-.365A3.7,3.7,0,0,1,1304.082,177.687Z" transform="translate(-1216.846 -176.516)"/><path class="a" d="M1433.5,180.587v6.563h1.8v1.939h-6.041V187.15h1.82v-6.563h-1.82v-1.939h6.041v1.939Z" transform="translate(-1339.252 -178.469)"/><path class="a" d="M1531.345,177.687a4.845,4.845,0,0,1,1.044,3.333v6.115h-2.416v-6.04a2.683,2.683,0,0,0-.589-1.887,2.12,2.12,0,0,0-1.633-.634,2.36,2.36,0,0,0-1.767.679,2.758,2.758,0,0,0-.664,2.006v5.876H1522.9v-10.44h2.342v1.268a3.423,3.423,0,0,1,1.342-1.081,4.434,4.434,0,0,1,1.849-.365A3.7,3.7,0,0,1,1531.345,177.687Z" transform="translate(-1425.034 -176.516)"/><path class="a" d="M1664.236,181.751h2.208v5.384h-1.82v-.626a4.594,4.594,0,0,1-2.8.805,5.681,5.681,0,0,1-2.655-.626,4.752,4.752,0,0,1-1.924-1.827,5.943,5.943,0,0,1,.022-5.7,5.158,5.158,0,0,1,2.051-1.946,6.168,6.168,0,0,1,2.953-.7,6.465,6.465,0,0,1,2.491.462,4.936,4.936,0,0,1,1.879,1.342l-1.551,1.432a3.588,3.588,0,0,0-2.7-1.178,3.632,3.632,0,0,0-1.775.425,3.019,3.019,0,0,0-1.208,1.2,3.98,3.98,0,0,0-.008,3.594,2.825,2.825,0,0,0,1.141,1.126,3.286,3.286,0,0,0,1.566.38,3.234,3.234,0,0,0,2.133-.716Z" transform="translate(-1547.439 -176.516)"/></g><path class="a" d="M160.945,281.685l-.174.036v-4.266h-3.23v4.266l-.174-.036a8.7,8.7,0,0,1-2.35-.865l-1.043,2.246a9.384,9.384,0,0,0,2.355.947,11.491,11.491,0,0,0,5.655,0,9.378,9.378,0,0,0,2.355-.947L163.3,280.82A8.7,8.7,0,0,1,160.945,281.685Z" transform="translate(-152.835 -264.397)"/><path class="a" d="M140.406,184.094c.123,1.547,2.726,2.4,3.184,2.56v-4.09h6.262v4.09c.458-.156,3.061-1.013,3.184-2.56l.006-.08v-5.693l-.006-.039c-.123-1.547-2.726-2.4-3.184-2.56v4.091h-6.262v-4.091c-.458.156-3.061,1.013-3.184,2.56l-.006.08v5.693Z" transform="translate(-140.4 -171.204)"/><path class="a" d="M157.367,124.571l.174-.036V128.8h3.23v-4.266l.174.036a8.7,8.7,0,0,1,2.35.865l1.043-2.246a9.38,9.38,0,0,0-2.355-.947,11.488,11.488,0,0,0-5.655,0,9.372,9.372,0,0,0-2.355.947l1.043,2.246A8.7,8.7,0,0,1,157.367,124.571Z" transform="translate(-152.835 -121.89)"/></svg>