<svg xmlns="http://www.w3.org/2000/svg" xmlns:xlink="http://www.w3.org/1999/xlink" width="69.77" height="110.192" viewBox="0 0 69.77 110.192"><defs><style>.a{fill:url(#a);}.b{fill:url(#b);}.c{fill:url(#c);}</style><linearGradient id="a" x1="-0.359" y1="-1.45" x2="0.632" y2="1.124" gradientUnits="objectBoundingBox"><stop offset="0" stop-color="#348cfe"/><stop offset="0.926" stop-color="#163de5"/><stop offset="1" stop-color="#1437e3"/></linearGradient><linearGradient id="b" x1="0.088" y1="-0.326" x2="0.899" y2="1.3" xlink:href="#a"/><linearGradient id="c" x1="0.352" y1="-0.164" x2="1.343" y2="2.41" xlink:href="#a"/></defs><path class="a" d="M192.444,300.8l-.961.2v-23.54H173.66v23.54l-.962-.2a48,48,0,0,1-12.97-4.775l-5.755,12.394a51.774,51.774,0,0,0,13,5.225,63.4,63.4,0,0,0,31.2,0,51.739,51.739,0,0,0,13-5.225l-5.754-12.394A48.005,48.005,0,0,1,192.444,300.8Z" transform="translate(-147.687 -205.4)"/><path class="b" d="M140.435,221.92c.679,8.535,15.043,13.265,17.573,14.126V213.473h34.554v22.572c2.53-.861,16.893-5.591,17.572-14.126l.035-.442V190.062l-.035-.214c-.679-8.535-15.042-13.264-17.572-14.126v22.573H158.008V175.722c-2.53.862-16.893,5.591-17.572,14.126l-.036.443v31.415Z" transform="translate(-140.4 -150.788)"/><path class="c" d="M172.7,136.684l.962-.2v23.54h17.823v-23.54l.961.2a47.988,47.988,0,0,1,12.97,4.775l5.755-12.394a51.764,51.764,0,0,0-13-5.225,63.393,63.393,0,0,0-31.2,0,51.719,51.719,0,0,0-12.995,5.225l5.754,12.394A48.012,48.012,0,0,1,172.7,136.684Z" transform="translate(-147.687 -121.89)"/></svg>