<svg xmlns="http://www.w3.org/2000/svg" xmlns:xlink="http://www.w3.org/1999/xlink" width="595" height="86.491" viewBox="0 0 595 86.491"><defs><style>.a{fill:#210d4a;}.b{fill:url(#a);}.c{fill:url(#b);}.d{fill:url(#c);}</style><linearGradient id="a" x1="-0.359" y1="-1.45" x2="0.632" y2="1.124" gradientUnits="objectBoundingBox"><stop offset="0" stop-color="#348cfe"/><stop offset="0.926" stop-color="#163de5"/><stop offset="1" stop-color="#1437e3"/></linearGradient><linearGradient id="b" x1="0.088" y1="-0.326" x2="0.899" y2="1.3" xlink:href="#a"/><linearGradient id="c" x1="0.352" y1="-0.164" x2="1.343" y2="2.41" xlink:href="#a"/></defs><g transform="translate(78.714 19.86)"><path class="a" d="M398.384,178.648v45.221H387.919v-18.54H367.375v18.54H356.91V178.648h10.465v17.83h20.543v-17.83Z" transform="translate(-356.91 -177.873)"/><path class="a" d="M531.072,178.971a17.247,17.247,0,0,1,7.235,7.236,24.028,24.028,0,0,1,2.584,11.564v24.742H530.426V211.659H509.754v10.853H499.418V197.77A24.011,24.011,0,0,1,502,186.206a17.244,17.244,0,0,1,7.235-7.236,25.506,25.506,0,0,1,21.835,0Zm-.646,24.29V196.8q0-5.62-2.778-8.495a11.416,11.416,0,0,0-15.149,0q-2.747,2.876-2.746,8.495v6.46Z" transform="translate(-447.608 -176.516)"/><path class="a" d="M646.09,220.283a22.417,22.417,0,0,1-8.786-8.333,24.295,24.295,0,0,1,0-24.1,22.415,22.415,0,0,1,8.786-8.333,28.032,28.032,0,0,1,23.191-.937,21.3,21.3,0,0,1,7.978,5.943l-6.719,6.2a14.448,14.448,0,0,0-11.37-5.3,15.1,15.1,0,0,0-7.494,1.841,13.089,13.089,0,0,0-5.136,5.136,16.172,16.172,0,0,0,0,14.988,13.093,13.093,0,0,0,5.136,5.136,15.1,15.1,0,0,0,7.494,1.841,14.375,14.375,0,0,0,11.37-5.362l6.719,6.2a20.939,20.939,0,0,1-8.011,6.008,26.588,26.588,0,0,1-10.659,2.067A25.97,25.97,0,0,1,646.09,220.283Z" transform="translate(-533.329 -176.516)"/><path class="a" d="M788.642,206.1l-6.072,6.331v11.434h-10.4V178.648h10.4v21.125L802.6,178.648h11.628L795.49,198.8l19.833,25.065H803.113Z" transform="translate(-621.198 -177.873)"/><path class="a" d="M932.471,178.971a17.247,17.247,0,0,1,7.235,7.236,24.026,24.026,0,0,1,2.584,11.564v24.742H931.825V211.659H911.153v10.853H900.817V197.77a24.016,24.016,0,0,1,2.584-11.564,17.243,17.243,0,0,1,7.235-7.236,25.505,25.505,0,0,1,21.835,0Zm-.646,24.29V196.8q0-5.62-2.778-8.495a11.416,11.416,0,0,0-15.149,0q-2.746,2.876-2.746,8.495v6.46Z" transform="translate(-703.075 -176.516)"/><path class="a" d="M1063.863,189.953a34.715,34.715,0,0,0-12.468-4.329v36.887h-10.466V185.625a35.305,35.305,0,0,0-12.532,4.329l-3.553-7.817a38.674,38.674,0,0,1,10.078-4.2,43.958,43.958,0,0,1,11.176-1.421,44.6,44.6,0,0,1,11.273,1.421,37.577,37.577,0,0,1,10.046,4.2Z" transform="translate(-782.011 -176.516)"/><path class="a" d="M1194.672,178.648v45.221H1184.53v-5.491q-4.651,6.267-13.7,6.266-8.011,0-12.5-5.071t-4.49-14.438V178.648h10.465v26.164q0,5.426,2.551,8.172a9.016,9.016,0,0,0,6.945,2.746,10.03,10.03,0,0,0,7.558-2.939q2.842-2.938,2.843-8.689V178.648Z" transform="translate(-864.112 -177.873)"/><path class="a" d="M1332.2,181.587q4.521,5.072,4.522,14.438v26.487h-10.465V196.348q0-5.426-2.552-8.172a9.184,9.184,0,0,0-7.074-2.746,10.222,10.222,0,0,0-7.656,2.939q-2.875,2.941-2.875,8.689v25.453H1295.64V177.291h10.143v5.491a14.819,14.819,0,0,1,5.814-4.684,19.2,19.2,0,0,1,8.01-1.583Q1327.682,176.516,1332.2,181.587Z" transform="translate(-954.357 -176.516)"/><path class="a" d="M1447.609,187.046v28.425h7.817v8.4h-26.164v-8.4h7.882V187.046h-7.882v-8.4h26.164v8.4Z" transform="translate(-1039.399 -177.873)"/><path class="a" d="M1559.467,181.587q4.521,5.072,4.522,14.438v26.487h-10.466V196.348q0-5.426-2.551-8.172a9.185,9.185,0,0,0-7.074-2.746,10.222,10.222,0,0,0-7.655,2.939q-2.875,2.941-2.875,8.689v25.453H1522.9V177.291h10.142v5.491a14.822,14.822,0,0,1,5.814-4.684,19.2,19.2,0,0,1,8.01-1.583Q1554.944,176.516,1559.467,181.587Z" transform="translate(-1098.996 -176.516)"/><path class="a" d="M1689.924,199.191h9.561v23.321H1691.6V219.8q-4.717,3.489-12.146,3.488a24.606,24.606,0,0,1-11.5-2.713,20.591,20.591,0,0,1-8.333-7.914,25.744,25.744,0,0,1,.1-24.678,22.344,22.344,0,0,1,8.883-8.43,26.717,26.717,0,0,1,12.791-3.036,28,28,0,0,1,10.788,2,21.38,21.38,0,0,1,8.14,5.814l-6.719,6.2a15.542,15.542,0,0,0-11.693-5.1,15.729,15.729,0,0,0-7.687,1.841,13.076,13.076,0,0,0-5.233,5.2,17.241,17.241,0,0,0-.033,15.569,12.23,12.23,0,0,0,4.943,4.877,14.231,14.231,0,0,0,6.783,1.647,14.009,14.009,0,0,0,9.238-3.1Z" transform="translate(-1184.039 -176.516)"/></g><path class="b" d="M184.17,295.777l-.754.155V277.455H169.426v18.477l-.755-.155a37.672,37.672,0,0,1-10.18-3.748l-4.517,9.728a40.638,40.638,0,0,0,10.2,4.1,49.767,49.767,0,0,0,24.493,0,40.61,40.61,0,0,0,10.2-4.1l-4.516-9.728A37.68,37.68,0,0,1,184.17,295.777Z" transform="translate(-149.039 -220.898)"/><path class="c" d="M140.428,211.983c.533,6.7,11.807,10.412,13.793,11.087V205.353h27.122V223.07c1.986-.676,13.26-4.388,13.793-11.087l.028-.347V186.977l-.028-.168c-.533-6.7-11.807-10.411-13.793-11.087V193.44H154.221V175.722c-1.986.676-13.26,4.388-13.793,11.087l-.028.348v24.658Z" transform="translate(-140.4 -156.151)"/><path class="d" d="M168.671,133.5l.755-.155v18.477h13.989V133.347l.754.155a37.667,37.667,0,0,1,10.18,3.748l4.517-9.728a40.63,40.63,0,0,0-10.2-4.1,49.758,49.758,0,0,0-24.493,0,40.6,40.6,0,0,0-10.2,4.1l4.516,9.728A37.685,37.685,0,0,1,168.671,133.5Z" transform="translate(-149.039 -121.89)"/></svg>